<svg width="18" height="18" viewBox="0 0 18 18" fill="none" xmlns="http://www.w3.org/2000/svg">
<path fill-rule="evenodd" clip-rule="evenodd" d="M9 17.5C9.53936 17.5 9.9766 17.0628 9.9766 16.5234V9.97659H16.5234C17.0628 9.97659 17.5 9.53936 17.5 9C17.5 8.46064 17.0628 8.0234 16.5234 8.0234H9.9766V1.47659C9.9766 0.937237 9.53936 0.5 9 0.5C8.46064 0.5 8.02341 0.937237 8.02341 1.47659V8.0234H1.4766C0.937237 8.0234 0.5 8.46064 0.5 9C0.5 9.53936 0.937237 9.97659 1.4766 9.97659H8.02341V16.5234C8.02341 17.0628 8.46064 17.5 9 17.5Z" fill="#525252"/>
</svg>
