<svg width="15" height="11" viewBox="0 0 15 11" fill="none" xmlns="http://www.w3.org/2000/svg">
<path fill-rule="evenodd" clip-rule="evenodd" d="M0 5.49998C0 5.12127 0.307004 4.81427 0.685712 4.81427H14.3142C14.6929 4.81427 14.9999 5.12127 14.9999 5.49998C14.9999 5.87869 14.6929 6.18569 14.3142 6.18569H0.685712C0.307004 6.18569 0 5.87869 0 5.49998Z" fill="#525252"/>
<path fill-rule="evenodd" clip-rule="evenodd" d="M9.28656 0.472264C9.55435 0.204477 9.98852 0.204477 10.2563 0.472264L14.7991 5.0151C15.0669 5.28289 15.0669 5.71706 14.7991 5.98485L10.2563 10.5277C9.98852 10.7955 9.55435 10.7955 9.28656 10.5277C9.01878 10.2599 9.01878 9.82573 9.28656 9.55795L13.3445 5.49998L9.28656 1.44201C9.01878 1.17422 9.01878 0.740051 9.28656 0.472264Z" fill="#525252"/>
</svg>
