<svg width="20" height="15" viewBox="0 0 20 15" fill="none" xmlns="http://www.w3.org/2000/svg">
<path fill-rule="evenodd" clip-rule="evenodd" d="M0 7.5C0 7.00115 0.404391 6.59676 0.903232 6.59676H18.855C19.3538 6.59676 19.7582 7.00115 19.7582 7.5C19.7582 7.99884 19.3538 8.40323 18.855 8.40323H0.903232C0.404391 8.40323 0 7.99884 0 7.5Z" fill="#525252"/>
<path fill-rule="evenodd" clip-rule="evenodd" d="M12.2324 0.877404C12.5851 0.52467 13.157 0.52467 13.5097 0.877404L19.4936 6.86131C19.8464 7.21405 19.8464 7.78594 19.4936 8.13868L13.5097 14.1226C13.157 14.4753 12.5851 14.4753 12.2324 14.1226C11.8796 13.7699 11.8796 13.198 12.2324 12.8452L17.5776 7.5L12.2324 2.15477C11.8796 1.80203 11.8796 1.23014 12.2324 0.877404Z" fill="#525252"/>
</svg>
