<svg width="14" height="14" viewBox="0 0 14 14" fill="none" xmlns="http://www.w3.org/2000/svg">
<path fill-rule="evenodd" clip-rule="evenodd" d="M0.274044 0.274044C0.639435 -0.0913479 1.23185 -0.0913479 1.59724 0.274044L7 5.6768L12.4028 0.274044C12.7681 -0.0913479 13.3606 -0.0913479 13.726 0.274044C14.0913 0.639435 14.0913 1.23185 13.726 1.59724L8.3232 7L13.726 12.4028C14.0913 12.7681 14.0913 13.3606 13.726 13.726C13.3606 14.0913 12.7681 14.0913 12.4028 13.726L7 8.3232L1.59724 13.726C1.23185 14.0913 0.639435 14.0913 0.274044 13.726C-0.0913479 13.3606 -0.0913479 12.7681 0.274044 12.4028L5.6768 7L0.274044 1.59724C-0.0913479 1.23185 -0.0913479 0.639435 0.274044 0.274044Z" fill="#525252"/>
</svg>
