<svg width="20" height="18" viewBox="0 0 20 18" fill="none" xmlns="http://www.w3.org/2000/svg">
<path fill-rule="evenodd" clip-rule="evenodd" d="M7.07846 2.54566C6.75603 2.54566 6.45256 2.69836 6.25929 2.95755C6.25929 2.95755 6.25929 2.95755 6.25929 2.95756L2.21409 8.38262L1.63265 7.94345L2.21408 8.38262C1.94127 8.7485 1.94127 9.25149 2.21408 9.61736L1.59496 10.085L2.21409 9.61737L6.25929 15.0424C6.45256 15.3016 6.75603 15.4543 7.07846 15.4543H16.9667C17.5326 15.4543 17.9905 14.9931 17.9905 14.4251V3.57493C17.9905 3.00693 17.5326 2.54566 16.9667 2.54566H7.07846ZM5.02104 2.02227C5.50684 1.37076 6.26912 0.987488 7.07846 0.987488H16.9667C18.3868 0.987488 19.5387 2.14547 19.5387 3.57493V14.4251C19.5387 15.8545 18.3868 17.0125 16.9667 17.0125H7.07846C6.26911 17.0125 5.50684 16.6292 5.02104 15.9777L5.63403 15.5147L5.02104 15.9777L0.975834 10.5526C0.289794 9.6326 0.289794 8.36738 0.975832 7.44734L5.02104 2.02228L5.61201 2.46865L5.02104 2.02227Z" fill="#525252"/>
<path fill-rule="evenodd" clip-rule="evenodd" d="M14.736 5.79066C15.035 6.08998 15.0348 6.57512 14.7356 6.87425L12.6096 9L14.7356 11.1258C15.0348 11.4249 15.035 11.91 14.736 12.2093C14.437 12.5087 13.9521 12.5088 13.6529 12.2097L11.5262 10.0833L9.39946 12.2097C9.10029 12.5088 8.61538 12.5087 8.3164 12.2093C8.01741 11.91 8.01756 11.4249 8.31673 11.1258L10.4428 9L8.31673 6.87426C8.01756 6.57513 8.01741 6.08999 8.31639 5.79067C8.61538 5.49135 9.10028 5.4912 9.39946 5.79033L11.5262 7.91675L13.6529 5.79032C13.9521 5.49119 14.437 5.49134 14.736 5.79066Z" fill="#525252"/>
</svg>
