<svg width="18" height="20" viewBox="0 0 18 20" fill="none" xmlns="http://www.w3.org/2000/svg">
<path fill-rule="evenodd" clip-rule="evenodd" d="M7.24999 2.06461C6.73341 2.06461 6.31464 2.48338 6.31464 2.99996V3.9353H11.6853V2.99996C11.6853 2.48337 11.2666 2.06461 10.75 2.06461H7.24999ZM13.3146 3.9353V2.99996C13.3146 1.58355 12.1664 0.435303 10.75 0.435303H7.24999C5.83357 0.435303 4.68533 1.58354 4.68533 2.99996V3.9353H1.12499C0.675067 3.9353 0.310333 4.30004 0.310333 4.74996C0.310333 5.19988 0.675067 5.56461 1.12499 5.56461H2.06033V17C2.06033 18.4164 3.20858 19.5646 4.62499 19.5646H13.375C14.7914 19.5646 15.9396 18.4164 15.9396 17V5.56461H16.875C17.3249 5.56461 17.6896 5.19988 17.6896 4.74996C17.6896 4.30004 17.3249 3.9353 16.875 3.9353H13.3146ZM3.68964 5.56461V17C3.68964 17.5166 4.1084 17.9353 4.62499 17.9353H13.375C13.8916 17.9353 14.3103 17.5166 14.3103 17V5.56461H3.68964Z" fill="#525252"/>
<path fill-rule="evenodd" clip-rule="evenodd" d="M10.75 8.3103C11.1999 8.3103 11.5646 8.67504 11.5646 9.12496V14.375C11.5646 14.8249 11.1999 15.1896 10.75 15.1896C10.3001 15.1896 9.93533 14.8249 9.93533 14.375V9.12496C9.93533 8.67504 10.3001 8.3103 10.75 8.3103Z" fill="#525252"/>
<path fill-rule="evenodd" clip-rule="evenodd" d="M7.24999 8.3103C7.69991 8.3103 8.06464 8.67504 8.06464 9.12496V14.375C8.06464 14.8249 7.69991 15.1896 7.24999 15.1896C6.80007 15.1896 6.43533 14.8249 6.43533 14.375V9.12496C6.43533 8.67504 6.80007 8.3103 7.24999 8.3103Z" fill="#525252"/>
</svg>
