<svg width="22" height="23" viewBox="0 0 22 23" fill="none" xmlns="http://www.w3.org/2000/svg">
<path fill-rule="evenodd" clip-rule="evenodd" d="M2.75 2.40385C3.21732 2.40385 3.59615 2.78268 3.59615 3.25V6.98718H7.33333C7.80065 6.98718 8.17949 7.36602 8.17949 7.83333C8.17949 8.30065 7.80065 8.67949 7.33333 8.67949H2.75C2.28268 8.67949 1.90385 8.30065 1.90385 7.83333V3.25C1.90385 2.78268 2.28268 2.40385 2.75 2.40385Z" fill="#525252"/>
<path fill-rule="evenodd" clip-rule="evenodd" d="M10.4266 2.43279C12.4621 2.30512 14.4816 2.86527 16.1605 4.02327C17.8395 5.18128 19.0805 6.86995 19.6843 8.81809C20.2882 10.7662 20.2198 12.8608 19.4901 14.7653C18.7604 16.6699 17.4118 18.274 15.6609 19.32C13.91 20.366 11.8583 20.7931 9.83539 20.5329C7.81249 20.2727 5.93574 19.3401 4.50655 17.8851C3.07736 16.43 2.17866 14.5368 1.95479 12.5095C1.9035 12.045 2.23846 11.6269 2.70296 11.5756C3.16745 11.5243 3.58558 11.8593 3.63687 12.3238C3.8191 13.9739 4.55059 15.5148 5.71389 16.6992C6.87718 17.8836 8.40476 18.6426 10.0513 18.8544C11.6979 19.0663 13.3678 18.7186 14.793 17.8672C16.2182 17.0158 17.3159 15.7101 17.9098 14.1599C18.5037 12.6097 18.5594 10.9048 18.0679 9.31911C17.5764 7.73342 16.5663 6.35892 15.1997 5.41636C13.8331 4.47379 12.1894 4.01786 10.5325 4.12178C8.87617 4.22567 7.30277 4.88304 6.06485 5.98835C6.06446 5.9887 6.06408 5.98904 6.06369 5.98939L3.31605 8.46227C2.96869 8.77489 2.43368 8.74673 2.12106 8.39938C1.80844 8.05202 1.8366 7.51701 2.18395 7.20439L4.93631 4.72727C6.4574 3.36855 8.391 2.56047 10.4266 2.43279Z" fill="#525252"/>
<path fill-rule="evenodd" clip-rule="evenodd" d="M11 6.07051C11.4673 6.07051 11.8462 6.44935 11.8462 6.91666V10.977L15.0451 12.5765C15.4631 12.7855 15.6325 13.2938 15.4235 13.7117C15.2145 14.1297 14.7062 14.2991 14.2883 14.0902L10.6216 12.2568C10.3349 12.1135 10.1538 11.8205 10.1538 11.5V6.91666C10.1538 6.44935 10.5327 6.07051 11 6.07051Z" fill="#525252"/>
</svg>

