<svg width="20" height="15" viewBox="0 0 20 15" fill="none" xmlns="http://www.w3.org/2000/svg">
<path fill-rule="evenodd" clip-rule="evenodd" d="M0.819336 7.50001C0.819336 6.96864 1.21279 6.53788 1.69814 6.53788H18.3019C18.7872 6.53788 19.1807 6.96864 19.1807 7.50001C19.1807 8.03138 18.7872 8.46213 18.3019 8.46213H1.69814C1.21279 8.46213 0.819336 8.03138 0.819336 7.50001Z" fill="#525252"/>
<path fill-rule="evenodd" clip-rule="evenodd" d="M0.819336 1.44064C0.819336 0.909275 1.21279 0.478516 1.69814 0.478516H18.3019C18.7872 0.478516 19.1807 0.909275 19.1807 1.44064C19.1807 1.97201 18.7872 2.40277 18.3019 2.40277H1.69814C1.21279 2.40277 0.819336 1.97201 0.819336 1.44064Z" fill="#525252"/>
<path fill-rule="evenodd" clip-rule="evenodd" d="M0.819336 13.5592C0.819336 13.0279 1.21279 12.5971 1.69814 12.5971H18.3019C18.7872 12.5971 19.1807 13.0279 19.1807 13.5592C19.1807 14.0906 18.7872 14.5214 18.3019 14.5214H1.69814C1.21279 14.5214 0.819336 14.0906 0.819336 13.5592Z" fill="#525252"/>
</svg>
