<svg width="18" height="18" viewBox="0 0 18 18" fill="none" xmlns="http://www.w3.org/2000/svg">
<path fill-rule="evenodd" clip-rule="evenodd" d="M17.7504 8.99999C17.7504 9.30422 17.5785 9.58234 17.3064 9.71839L2.04342 17.3499C1.74096 17.5011 1.37617 17.4467 1.13101 17.2138C0.885845 16.9809 0.812822 16.6193 0.948363 16.3095L4.14628 8.99999L0.94838 1.69043C0.81284 1.38062 0.885862 1.0191 1.13103 0.786189C1.37619 0.553276 1.74098 0.498866 2.04344 0.650097L17.3064 8.28159C17.5785 8.41765 17.7504 8.69576 17.7504 8.99999ZM5.54828 9.80319L3.30928 14.9209L13.5448 9.80319L5.54828 9.80319ZM13.5448 8.19679L3.30929 3.07903L5.54829 8.19679H13.5448Z" fill="#525252"/>
</svg>
