<svg width="16" height="26" viewBox="0 0.5 16 26" fill="none" xmlns="http://www.w3.org/2000/svg">
<g clip-path="url(#clip0_27_882)">
<path fill-rule="evenodd" clip-rule="evenodd" d="M0.5 9.51846C0.5 9.07568 0.858944 8.71674 1.30172 8.71674H11.2285C11.3456 8.71673 12.4933 8.71671 13.6376 9.30065C14.2228 9.59927 14.823 10.0587 15.2744 10.7593C15.7279 11.4633 16 12.3627 16 13.4889C16 15.9901 14.9444 17.379 13.7283 18.0896C12.5851 18.7574 11.4163 18.7574 11.2298 18.7574H3.28695C2.84417 18.7574 2.48522 18.3984 2.48522 17.9557C2.48522 17.5129 2.84417 17.1539 3.28695 17.1539H11.2278C11.343 17.1539 12.1552 17.1515 12.9194 16.7051C13.6146 16.2989 14.3966 15.4544 14.3966 13.4889C14.3966 12.6299 14.1924 12.0404 13.9265 11.6277C13.6584 11.2116 13.2961 10.9266 12.9088 10.7289C12.1103 10.3214 11.2751 10.3202 11.2278 10.3202H1.30172C0.858944 10.3202 0.5 9.96124 0.5 9.51846Z" fill="#525252"/>
<path fill-rule="evenodd" clip-rule="evenodd" d="M5.34277 5.47743C5.65586 5.79053 5.65586 6.29815 5.34277 6.61124L2.43553 9.51848L5.34276 12.4257C5.65586 12.7388 5.65586 13.2464 5.34277 13.5595C5.02968 13.8726 4.52206 13.8726 4.20896 13.5595L0.734826 10.0854C0.584471 9.93504 0.500001 9.73111 0.5 9.51848C0.499999 9.30585 0.584466 9.10193 0.73482 8.95157L4.20896 5.47743C4.52205 5.16434 5.02967 5.16434 5.34277 5.47743Z" fill="#525252"/>
</g>
<defs>
<clipPath id="clip0_27_882">
<rect width="15.5" height="26" fill="white" transform="translate(0.5)"/>
</clipPath>
</defs>
</svg>
